<?xml version="1.0" standalone="no"?>
<!DOCTYPE svg PUBLIC "-//W3C//DTD SVG 20010904//EN"
 "http://www.w3.org/TR/2001/REC-SVG-20010904/DTD/svg10.dtd">
<svg version="1.0" xmlns="http://www.w3.org/2000/svg"
 width="503.000000pt" height="320.000000pt" viewBox="0 0 503.000000 320.000000"
 preserveAspectRatio="xMidYMid meet">
<metadata>
Created by potrace 1.14, written by Peter Selinger 2001-2017
</metadata>
<g transform="translate(0.000000,320.000000) scale(0.100000,-0.100000)"
fill="#000000" stroke="none">
<path d="M1045 3110 c-452 -45 -826 -366 -947 -813 -19 -70 -22 -107 -22 -257
0 -151 3 -187 23 -260 27 -101 92 -243 152 -331 131 -194 369 -358 608 -419
387 -100 706 -8 1017 292 l91 88 537 0 538 0 86 -81 c258 -242 545 -351 837
-320 282 29 492 127 681 315 144 145 222 280 276 477 20 73 23 107 23 259 -1
151 -4 187 -24 260 -50 186 -129 327 -259 462 -156 161 -328 258 -557 311 -89
21 -106 21 -1535 23 -795 1 -1481 -2 -1525 -6z m3240 -444 c60 -28 77 -46 106
-111 53 -121 -30 -269 -164 -289 -135 -20 -263 105 -242 239 10 68 57 132 118
160 65 31 118 31 182 1z m-3113 -115 l33 -29 3 -131 4 -131 124 0 c123 0 124
0 156 -29 28 -25 33 -36 33 -76 0 -40 -5 -51 -33 -76 -32 -29 -33 -29 -156
-29 l-124 0 -4 -131 -3 -131 -33 -29 c-48 -43 -112 -37 -154 15 -15 17 -18 43
-18 149 l0 127 -121 0 c-69 0 -130 5 -142 11 -61 31 -77 115 -33 166 24 28 27
28 158 33 l133 5 5 133 c5 131 5 134 33 158 41 35 97 33 139 -5z m1164 -309
c55 -44 59 -109 10 -158 l-34 -34 -137 0 c-81 0 -145 5 -158 11 -38 19 -57 51
-57 97 0 35 6 49 29 73 l29 29 149 0 c125 0 151 -3 169 -18z m640 0 c55 -44
59 -109 10 -158 l-34 -34 -137 0 c-81 0 -145 5 -158 11 -38 19 -57 51 -57 97
0 35 6 49 29 73 l29 29 149 0 c125 0 151 -3 169 -18z m669 -216 c60 -28 77
-46 106 -111 53 -121 -30 -269 -164 -289 -135 -20 -263 105 -242 239 10 68 57
132 118 160 65 31 118 31 182 1z"/>
<path d="M1863 1188 c9 -36 207 -1052 207 -1061 0 -4 30 -7 66 -5 l66 3 225
470 c123 259 239 503 258 543 l34 72 -117 0 -117 0 -144 -317 c-80 -174 -146
-312 -148 -307 -4 16 -113 605 -113 615 0 5 -50 9 -111 9 -110 0 -111 0 -106
-22z"/>
<path d="M2850 1206 c0 -9 -141 -1001 -146 -1033 l-6 -33 360 0 359 0 7 62 c4
35 10 75 13 90 l5 28 -244 2 -245 3 63 440 c35 242 63 441 64 443 0 1 -52 2
-115 2 -63 0 -115 -2 -115 -4z"/>
</g>
</svg>
